<svg width="40" height="38" viewBox="0 0 40 38" fill="none" xmlns="http://www.w3.org/2000/svg">
<path d="M0 18.0392C10.4826 18.5329 18.8697 26.9196 19.3634 37.4022C8.88077 36.9085 0.493716 28.5218 0 18.0392Z" fill="#0A341D"/>
<path d="M40 18.0392C39.5063 28.5218 31.1196 36.9084 20.637 37.4022C21.1308 26.9196 29.5174 18.5329 40 18.0392Z" fill="#0A341D"/>
<path d="M9.11441 4.50854C15.1261 -1.50274 24.8753 -1.50296 30.8869 4.50854L30.8873 4.50811C34.472 8.09286 35.9182 13.007 35.2278 17.665C32.0865 18.5599 29.2356 20.1435 26.847 22.2407L24.2529 19.6466C26.2334 18.549 27.1293 15.5781 21.8839 14.3416C31.7364 16.6676 27.3574 2.77852 21.1652 12.0835C27.3571 2.77808 12.8006 2.65826 18.7876 12.0665C12.8004 2.64109 8.16463 16.4626 18.0349 14.3072C8.16465 16.4455 19.8652 25.1184 19.9337 15.7101H19.9507C19.9187 20.1253 22.5067 20.614 24.2525 19.6471L26.8465 22.2411C23.4907 25.1877 21.0491 29.1497 20.0009 33.6472C18.207 25.9479 12.3283 19.8174 4.77345 17.665C4.08298 13.007 5.52962 8.09333 9.11441 4.50854Z" fill="#0A341D"/>
</svg>
