<svg width="32" height="33" viewBox="0 0 32 33" fill="none" xmlns="http://www.w3.org/2000/svg">
<g clip-path="url(#clip0_10_574)">
<path d="M24.4206 5.09762C24.4038 7.43621 21.5015 5.28269 23.9495 4.74431C21.5015 5.28269 22.6456 1.85051 24.1346 4.1891C22.6456 1.85051 26.2628 1.88416 24.7234 4.1891C26.2628 1.88416 27.348 5.32475 24.9001 4.75272C27.348 5.33316 24.4038 7.4278 24.4206 5.09762Z" fill="#FAFAEA"/>
<path d="M24.4375 7.5459C28.6182 7.54608 32.0078 10.9364 32.0078 15.1172C32.0077 19.2978 28.6181 22.6873 24.4375 22.6875H16.8662V15.1172C16.8662 10.9363 20.2566 7.5459 24.4375 7.5459ZM25.0098 14.8809C28.0548 10.3047 20.8966 10.2464 23.8408 14.873C20.8966 10.2379 18.6169 17.0345 23.4707 15.9746C18.617 17.0261 24.3703 21.2911 24.4043 16.665H24.4131C24.3798 21.2995 30.217 17.1352 25.3633 15.9912C30.2087 17.1353 28.055 10.3048 25.0098 14.8809Z" fill="#FAFAEA"/>
<path d="M7.91857 22.531C3.44698 19.4876 2.28064 13.382 5.32883 8.90344C9.80042 11.9469 10.9668 18.0525 7.91857 22.531Z" fill="#FAFAEA"/>
<path d="M3.30605 15.8906C2.305 15.4027 1.18618 15.1167 6.10352e-05 15.1167C6.10352e-05 19.163 3.17146 22.4521 7.16725 22.6709C5.05579 20.8959 3.74349 18.4732 3.31447 15.899L3.30605 15.8906Z" fill="#FAFAEA"/>
<path d="M15.9831 0C11.8107 0 8.42899 3.37329 8.41217 7.53733V11.1966C10.4732 14.6372 10.6078 19.0368 8.48788 22.6709C12.6351 22.6288 15.9831 19.2555 15.9831 15.0999V0Z" fill="#FAFAEA"/>
</g>
<path d="M31.8848 32.3994H31.7862C30.0469 32.3994 28.6368 30.9893 28.6368 29.25V25.1094H29.752V29.208C29.7522 30.3313 30.6629 31.2422 31.7862 31.2422H31.8848V32.3994Z" fill="#FAFAEA" stroke="#FAFAEA" stroke-width="0.197807"/>
<path d="M15.9926 25.1201C16.4889 25.1201 16.9605 25.2151 17.4066 25.4053C17.8518 25.595 18.2433 25.8581 18.5795 26.1943C18.9156 26.5305 19.1789 26.9212 19.3686 27.3662C19.5588 27.8125 19.6537 28.2848 19.6537 28.7812C19.6537 29.2157 19.5805 29.6338 19.435 30.0352L19.3686 30.2061C19.1788 30.6512 18.9157 31.0427 18.5795 31.3789C18.2433 31.7151 17.8518 31.9783 17.4066 32.168C16.9605 32.358 16.4888 32.4531 15.9926 32.4531C15.4967 32.4531 15.0254 32.3614 14.5795 32.1787L14.5775 32.1777C14.1391 31.9877 13.7514 31.7212 13.4154 31.3779V31.377C13.1219 31.0831 12.8834 30.7481 12.7016 30.3711L12.6273 30.2061C12.4374 29.753 12.3422 29.2777 12.3422 28.7812C12.3422 28.2853 12.4336 27.8172 12.6166 27.3779V27.377C12.8064 26.9316 13.0733 26.5374 13.4164 26.1943C13.7523 25.8584 14.1396 25.5951 14.5775 25.4053L14.7465 25.3379C15.1425 25.1923 15.5582 25.1201 15.9926 25.1201ZM15.9926 26.2881C15.6574 26.2881 15.3364 26.3535 15.0287 26.4834H15.0277C14.7272 26.6064 14.4605 26.784 14.2279 27.0166C13.9955 27.2491 13.8142 27.519 13.684 27.8271C13.5612 28.1276 13.4994 28.4455 13.4994 28.7812C13.4994 29.1236 13.5648 29.4518 13.6947 29.7666L13.8012 29.9902C13.9167 30.206 14.0591 30.3985 14.2279 30.5674C14.4602 30.7996 14.7265 30.9803 15.0268 31.1104L15.2602 31.1914C15.4964 31.2608 15.7406 31.2949 15.9926 31.2949C16.3285 31.2949 16.6462 31.2333 16.9467 31.1104C17.2547 30.9802 17.5249 30.7997 17.7572 30.5674C17.9824 30.3422 18.1601 30.0753 18.2904 29.7666C18.4204 29.4518 18.4857 29.1236 18.4857 28.7812C18.4857 28.446 18.4201 28.1283 18.2904 27.8281L18.2895 27.8262C18.1664 27.5186 17.9894 27.2488 17.7572 27.0166C17.525 26.7844 17.2553 26.6065 16.9477 26.4834L16.9447 26.4824C16.6447 26.3529 16.3276 26.2881 15.9926 26.2881Z" fill="#FAFAEA" stroke="#FAFAEA" stroke-width="0.197807"/>
<path d="M3.3591 25.1094V26.2666H3.26047C2.18109 26.2666 1.28866 27.1159 1.23605 28.1807H3.22531V29.3389H1.23117V32.3994H0.115936V28.208C0.115936 26.4967 1.50327 25.1094 3.21457 25.1094H3.3591Z" fill="#FAFAEA" stroke="#FAFAEA" stroke-width="0.197807"/>
<defs>
<clipPath id="clip0_10_574">
<rect width="32" height="22.6793" fill="white"/>
</clipPath>
</defs>
</svg>
